<svg width="121" height="128" viewBox="0 0 121 128" fill="none" xmlns="http://www.w3.org/2000/svg">
<path d="M71.757 125.814C64.8812 128.494 57.2062 128.477 50.3531 125.738C43.8639 123.146 38.5245 118.304 35.3109 112.099L21.0839 84.6274L4.76642 54.7727C-3.98077 38.7687 1.73107 18.7069 17.5962 9.71036C19.913 8.39657 22.3787 7.36467 24.9407 6.63667L37.4658 3.07768C39.3472 2.54307 41.2702 2.16711 43.2145 1.95374L57.2472 0.413873C59.7541 0.138772 62.2834 0.135431 64.7911 0.403925L79.1649 1.9429C81.2246 2.16343 83.2607 2.56638 85.2491 3.14701L97.0033 6.57922C99.6266 7.34522 102.146 8.43133 104.503 9.81302C119.879 18.8235 125.432 38.3449 117.1 54.0987L100.953 84.6274L87.3164 111.686C84.0614 118.145 78.4958 123.186 71.757 125.814Z" fill="black"/>
</svg>
